<svg width="1902" height="657" viewBox="0 0 1902 657" fill="none" xmlns="http://www.w3.org/2000/svg">
<path d="M-9.49988 19.0144C-3.30322 18.5532 2.99597 18.2456 9.39758 18.1688C53.4661 17.5281 93.9753 28.1631 130.106 38.7468C166.236 49.3561 201.855 60.0679 240.187 68.909C274.679 76.8788 311.296 83.1061 349.885 84.7206C360.179 85.1562 370.319 85.233 380.331 84.9768C409.957 85.233 439.609 78.9546 468.954 74.5469C489.823 72.6761 510.308 67.5508 530.794 72.6761C720.28 118.804 914.888 129.054 1096.69 59.8629C1124.86 49.6124 1153.03 54.7376 1183.75 57.3003C1304.1 75.2388 1419.33 80.364 1539.68 52.175C1608.82 34.2365 1672.84 11.1728 1743.84 3.66426C1766.61 1.15287 1789.98 -0.205359 1813.98 0.0252783C1847.55 0.358421 1879.94 3.25423 1911 8.45638V656.958H-9.47424V19.0144H-9.49988Z" fill="url(#paint0_radial_21_7863)"/>
<path opacity="0.05" d="M1124.53 69.1396C1087.37 70.2416 988.122 115.395 943.004 116.984C897.885 118.573 943.004 141.995 1036.42 136.665C1129.83 131.309 1124.53 69.1396 1124.53 69.1396Z" fill="#D7D7D7"/>
<path opacity="0.05" d="M502.908 93.7664C523.879 68.2169 599.904 113.396 674.47 111.192C749.01 108.988 802.246 137.049 747.73 153.117C693.214 169.185 475.714 126.876 502.908 93.7664Z" fill="#AEAEAE"/>
<defs>
<radialGradient id="paint0_radial_21_7863" cx="0" cy="0" r="1" gradientUnits="userSpaceOnUse" gradientTransform="translate(909.632 62.7776) rotate(88.598) scale(594.358 2467.23)">
<stop offset="0.114254" stop-color="#EFF3FF"/>
<stop offset="0.899694" stop-color="#F7F7F7"/>
</radialGradient>
</defs>
</svg>
