<svg width="48" height="47" viewBox="0 0 48 47" fill="none" xmlns="http://www.w3.org/2000/svg">
<path d="M47 3.5C47 1.84315 45.6569 0.5 44 0.5H4C2.34315 0.5 1 1.84315 1 3.5V43.5C1 45.1569 2.34315 46.5 4 46.5H44C45.6569 46.5 47 45.1569 47 43.5V3.5Z" stroke="white"/>
<path d="M29 31.5H19C16 31.5 14 30 14 26.5V19.5C14 16 16 14.5 19 14.5H29C32 14.5 34 16 34 19.5V26.5C34 30 32 31.5 29 31.5Z" stroke="white" stroke-width="2" stroke-miterlimit="10" stroke-linecap="round" stroke-linejoin="round"/>
<path d="M29 20L25.87 22.5C24.84 23.32 23.15 23.32 22.12 22.5L19 20" stroke="white" stroke-width="2" stroke-miterlimit="10" stroke-linecap="round" stroke-linejoin="round"/>
</svg>
